# xmcd
# 
# Track frame offsets:
#     150
#     20785
#     39771
#     50617
#     63428
#     84737
#     97274
#     115970
#     131273
#     154248
# 
# Disc length: 2267
# 
# Revision: 0
# Processed by: cddbd v1.5.2PL0 Copyright (c) Steve Scherf et al.
# Submitted via: fre:ac v1.0.27
# 
DISCID=8508d90a
DTITLE=The Bluesmasters - The Bluesmaster Volume 3
DYEAR=2012
DGENRE=Blues
TTITLE0=Loving Man (featuring Hazel Miller)
TTITLE1=Can't Let You Go (featuring Hazel Miller)
TTITLE2=Up the Line (featuring Mickey Thomas)
TTITLE3=Colorado Boogie (Tucker/Lynn)
TTITLE4=Suspicious (featuring Hazel Miller)
TTITLE5=Good Time Woman (featuring Hazel Miller)
TTITLE6=Baby What You Want Me to Do (featuring Mickey Thomas)
TTITLE7=Come Back Baby (featuring Hazel Miller)
TTITLE8=One I Need (featuring Hazel Miller)
TTITLE9=Baby Hold On (featuring Mickey Thomas)
EXTD=
EXTT0=
EXTT1=
EXTT2=
EXTT3=
EXTT4=
EXTT5=
EXTT6=
EXTT7=
EXTT8=
EXTT9=
PLAYORDER=
